<?xml version="1.0" encoding="UTF-8"?>
<svg id="Layer_1" data-name="Layer 1" xmlns="http://www.w3.org/2000/svg" viewBox="0 0 900 900">
  <defs>
    <style>
      .cls-1 {
        fill: #000;
        stroke-width: 0px;
      }
    </style>
  </defs>
  <path class="cls-1" d="M638.93,117.48h-281.83c36.46,33.58,58.03,82.64,58.03,141.1v330.62c0,75.44-30.13,139.61-80.04,183.19h284.87c173.44,0,280.04-130.08,280.04-339.65,0-197.83-96.66-315.27-261.07-315.27ZM604.6,752.53h-21.68V239.43c0-46.97-19.87-83.11-53.3-103.88h78.59c51.49,0,85.82,123.76,85.82,305.33s-36.14,311.65-89.43,311.65Z"/>
  <path class="cls-1" d="M93.95,119.47v18.97c38.84,0,65.04,23.49,65.04,57.81v453.47c0,54.2-23.49,90.33-63.23,90.33-42.46,0-76.78-38.84-76.78-94.85H0c0,82.21,69.56,137.31,166.21,137.31,115.63,0,198.73-77.69,198.73-193.31v-330.62c0-83.11-55.1-139.11-139.11-139.11H93.95Z"/>
</svg>