<svg width="21" height="21" viewBox="0 0 21 21" fill="none" xmlns="http://www.w3.org/2000/svg">
<path d="M3.08005 0.454987C1.76029 0.454987 0.680054 1.51701 0.680054 2.81454V17.9157C0.680054 19.2132 1.76029 20.2752 3.08005 20.2752H18.4401C19.7598 20.2752 20.8401 19.2132 20.8401 17.9157V2.81454C20.8401 1.51701 19.7598 0.454987 18.4401 0.454987H3.08005ZM3.08005 1.39881H18.4401C19.2409 1.39881 19.8801 2.02716 19.8801 2.81454V17.9157C19.8801 18.703 19.2409 19.3314 18.4401 19.3314H3.08005C2.27918 19.3314 1.64005 18.703 1.64005 17.9157V2.81454C1.64005 2.02716 2.27918 1.39881 3.08005 1.39881ZM4.04005 6.11791C3.77497 6.11793 3.56008 6.3292 3.56005 6.58982V14.1413C3.56008 14.4019 3.77497 14.6132 4.04005 14.6132H7.69255H7.69349C7.89146 14.6129 8.58586 14.5963 9.30412 14.2648C10.0224 13.9333 10.7601 13.1878 10.7601 11.9827C10.7601 11.2182 10.5054 10.6425 10.1638 10.2637C10.0208 10.1052 9.88728 10.0874 9.73631 9.98997C10.0252 9.65776 10.2801 9.20816 10.2801 8.47746C10.2801 7.35305 9.65364 6.65523 9.00974 6.37138C8.36584 6.08753 7.70369 6.11791 7.54068 6.11791H4.04005ZM13.1601 6.11791C12.987 6.1155 12.8259 6.20492 12.7387 6.35192C12.6514 6.49891 12.6514 6.68072 12.7387 6.82772C12.8259 6.97472 12.987 7.06414 13.1601 7.06173H16.0401C16.2132 7.06414 16.3742 6.97472 16.4614 6.82772C16.5487 6.68072 16.5487 6.49891 16.4614 6.35192C16.3742 6.20492 16.2132 6.1155 16.0401 6.11791H13.1601ZM4.52005 7.06173H7.54068C7.75783 7.06173 8.22619 7.05998 8.61693 7.23224C9.00767 7.40449 9.32006 7.65099 9.32006 8.47746C9.32006 9.36271 8.97306 9.53259 8.76693 9.63696C8.59625 9.72363 8.49457 9.902 8.50844 10.0904C8.52232 10.2787 8.64908 10.4408 8.83068 10.5024C9.01218 10.5636 9.25459 10.6776 9.44568 10.8895C9.63677 11.1014 9.80006 11.4121 9.80006 11.9827C9.80006 12.8465 9.39556 13.18 8.89631 13.4104C8.39705 13.6408 7.79891 13.6692 7.69255 13.6694H4.52005V7.06173ZM14.6001 7.53364C14.1621 7.53364 13.3604 7.61918 12.6144 8.1226C11.8684 8.62603 11.2401 9.58144 11.2401 11.073C11.2401 12.462 11.8203 13.4062 12.5497 13.9367C13.2792 14.4672 14.106 14.6123 14.6816 14.6123C15.9004 14.6123 16.7622 14.205 17.2785 13.6261C17.7553 13.0914 17.9132 12.4605 17.9376 11.9209C17.9506 11.8809 17.9582 11.8394 17.9601 11.7974C17.9602 11.7934 17.959 11.7886 17.9591 11.7845C17.9591 11.7834 17.9601 11.782 17.9601 11.7808C17.9599 11.7651 17.959 11.7494 17.9572 11.7338V11.732C17.9834 10.8791 17.9162 9.89335 17.4529 9.04983C16.9783 8.18576 16.024 7.53364 14.6001 7.53364ZM5.96005 8.00555V9.42128H7.21724C7.3886 9.42128 7.95974 9.31489 7.95974 8.683C7.95974 8.05064 7.21663 8.00555 7.10287 8.00555H5.96005ZM14.6001 8.47746C15.7561 8.47746 16.2718 8.88713 16.6072 9.49778C16.8789 9.99241 16.9615 10.6569 16.9776 11.3089H15.5601H13.6401C13.375 11.3089 13.1601 11.5202 13.1601 11.7808C13.1601 11.7808 13.1642 11.8999 13.1994 12.0039C13.2347 12.1078 13.3041 12.2358 13.4207 12.3504C13.6538 12.5796 14.0401 12.7246 14.6001 12.7246C15.1601 12.7246 15.5463 12.5796 15.7794 12.3504C15.8124 12.3181 15.8166 12.2864 15.8422 12.2527H16.9241C16.8602 12.5145 16.7575 12.7777 16.5566 13.003C16.2312 13.3679 15.6939 13.6685 14.6816 13.6685C14.2838 13.6685 13.6284 13.5474 13.1207 13.1781C12.6129 12.8088 12.2001 12.2195 12.2001 11.073C12.2001 9.8241 12.6467 9.2457 13.1582 8.90052C13.6697 8.55534 14.3079 8.47746 14.6001 8.47746ZM14.6413 9.23325C14.3576 9.23325 14.1539 9.26887 13.9916 9.34201C13.8294 9.41469 13.7085 9.52471 13.5866 9.63419C13.5055 9.74367 13.424 9.85381 13.3832 10.0001C13.3424 10.1096 13.3021 10.2193 13.3026 10.366H15.8985C15.8577 10.0003 15.7359 9.70806 15.5329 9.52543C15.3303 9.3428 15.0469 9.23325 14.6413 9.23325ZM5.97599 10.837V12.7154H7.38224C7.50416 12.7154 8.36005 12.6692 8.36005 11.8112C8.36005 10.9524 7.68752 10.837 7.38224 10.837H5.97599Z" fill="#F6F7EB"/>
</svg>
