<svg width="21" height="21" viewBox="0 0 21 21" fill="none" xmlns="http://www.w3.org/2000/svg">
<path d="M6.73001 0.631958C3.50462 0.631958 0.880005 3.21234 0.880005 6.38336V14.3468C0.880005 17.5179 3.50462 20.0983 6.73001 20.0983H14.83C18.0554 20.0983 20.68 17.5179 20.68 14.3468V6.38336C20.68 3.21234 18.0554 0.631958 14.83 0.631958H6.73001ZM6.73001 1.51679H14.83C17.5689 1.51679 19.78 3.69061 19.78 6.38336V14.3468C19.78 17.0396 17.5689 19.2134 14.83 19.2134H6.73001C3.99109 19.2134 1.78001 17.0396 1.78001 14.3468V6.38336C1.78001 3.69061 3.99109 1.51679 6.73001 1.51679ZM16.18 4.17128C15.683 4.17128 15.28 4.56744 15.28 5.05612C15.28 5.54479 15.683 5.94095 16.18 5.94095C16.6771 5.94095 17.08 5.54479 17.08 5.05612C17.08 4.56744 16.6771 4.17128 16.18 4.17128ZM10.78 5.49853C8.05153 5.49853 5.83001 7.68261 5.83001 10.3651C5.83001 13.0476 8.05153 15.2317 10.78 15.2317C13.5085 15.2317 15.73 13.0476 15.73 10.3651C15.73 7.68261 13.5085 5.49853 10.78 5.49853ZM10.78 6.38336C13.0221 6.38336 14.83 8.16081 14.83 10.3651C14.83 12.5694 13.0221 14.3468 10.78 14.3468C8.53792 14.3468 6.73001 12.5694 6.73001 10.3651C6.73001 8.16081 8.53792 6.38336 10.78 6.38336Z" fill="#F6F7EB"/>
</svg>
