<svg width="21" height="21" viewBox="0 0 21 21" fill="none" xmlns="http://www.w3.org/2000/svg">
<path d="M3.23997 0.454987C1.9202 0.454987 0.839966 1.51701 0.839966 2.81454V17.9157C0.839966 19.2132 1.9202 20.2752 3.23997 20.2752H18.6C19.9197 20.2752 21 19.2132 21 17.9157V2.81454C21 1.51701 19.9197 0.454987 18.6 0.454987H3.23997ZM3.23997 1.39881H18.6C19.4008 1.39881 20.04 2.02716 20.04 2.81454V17.9157C20.04 18.703 19.4008 19.3314 18.6 19.3314H3.23997C2.43909 19.3314 1.79997 18.703 1.79997 17.9157V2.81454C1.79997 2.02716 2.43909 1.39881 3.23997 1.39881ZM5.63997 3.76389C5.11426 3.76389 4.64119 3.91837 4.2909 4.20815C3.94062 4.49792 3.72559 4.93082 3.72559 5.39437C3.72559 6.27552 4.50298 6.96244 5.49184 7.03039L5.49372 7.03131C5.54084 7.0471 5.59019 7.0555 5.63997 7.0562C6.73101 7.0562 7.55434 6.30482 7.55434 5.39437C7.55426 5.38607 7.55394 5.37777 7.5534 5.36949C7.50456 4.47275 6.69138 3.76389 5.63997 3.76389ZM5.63997 4.69665C6.30824 4.69665 6.57211 4.99006 6.6009 5.40636C6.59507 5.81043 6.34081 6.12344 5.63997 6.12344C4.97497 6.12344 4.67434 5.78862 4.67434 5.39437C4.67434 5.19725 4.7475 5.0487 4.90122 4.92154C5.05493 4.79438 5.30167 4.69665 5.63997 4.69665ZM4.19997 7.53364C3.93488 7.53366 3.71999 7.74493 3.71997 8.00555V16.9718C3.71999 17.2325 3.93488 17.4437 4.19997 17.4438H7.07997C7.34505 17.4437 7.55994 17.2325 7.55997 16.9718V14.204V8.00555C7.55994 7.74493 7.34505 7.53366 7.07997 7.53364H4.19997ZM8.51997 7.53364C8.25488 7.53366 8.03999 7.74493 8.03997 8.00555V16.9718C8.03999 17.2325 8.25488 17.4437 8.51997 17.4438H11.4C11.6651 17.4437 11.8799 17.2325 11.88 16.9718V12.2527C11.88 11.8612 11.9886 11.4717 12.18 11.2167C12.3713 10.9618 12.6127 10.8087 13.0715 10.8167C13.5447 10.8247 13.7952 10.9841 13.9847 11.2343C14.1741 11.4844 14.28 11.8595 14.28 12.2527V16.9718C14.28 17.2325 14.4949 17.4437 14.76 17.4438H17.64C17.9051 17.4437 18.1199 17.2325 18.12 16.9718V11.9043C18.12 10.5068 17.6989 9.39973 16.9772 8.65074C16.2554 7.90175 15.2516 7.53364 14.19 7.53364C13.181 7.53364 12.4132 7.86628 11.88 8.20556V8.00555C11.8799 7.74493 11.6651 7.53366 11.4 7.53364H8.51997ZM4.67997 8.47746H6.59997V14.204V16.4999H4.67997V8.47746ZM8.99997 8.47746H10.92V9.2139C10.92 9.41682 11.052 9.59699 11.2478 9.66135C11.4435 9.72571 11.6592 9.65984 11.7834 9.49778C11.7834 9.49778 12.5372 8.47746 14.19 8.47746C15.0316 8.47746 15.7533 8.75238 16.2806 9.29961C16.8079 9.84684 17.16 10.6899 17.16 11.9043V16.4999H15.24V12.2527C15.24 11.7022 15.1058 11.1329 14.7553 10.6702C14.4048 10.2074 13.8152 9.8852 13.0884 9.87291C12.3578 9.86016 11.7588 10.1891 11.4075 10.6573C11.0562 11.1255 10.92 11.7004 10.92 12.2527V16.4999H8.99997V8.47746Z" fill="white"/>
</svg>
